<svg width="28" height="22" viewBox="0 0 28 22" fill="none" xmlns="http://www.w3.org/2000/svg">
<path d="M1.5 5.25C1.08579 5.25 0.75 5.58579 0.75 6C0.75 6.41421 1.08579 6.75 1.5 6.75V5.25ZM27.0303 6.53033C27.3232 6.23744 27.3232 5.76256 27.0303 5.46967L22.2574 0.696699C21.9645 0.403806 21.4896 0.403806 21.1967 0.696699C20.9038 0.989592 20.9038 1.46447 21.1967 1.75736L25.4393 6L21.1967 10.2426C20.9038 10.5355 20.9038 11.0104 21.1967 11.3033C21.4896 11.5962 21.9645 11.5962 22.2574 11.3033L27.0303 6.53033ZM1.5 6.75H26.5V5.25H1.5V6.75Z" fill="#fff"/>
<path d="M26 16.75C26.4142 16.75 26.75 16.4142 26.75 16C26.75 15.5858 26.4142 15.25 26 15.25L26 16.75ZM0.469669 15.4697C0.176776 15.7626 0.176776 16.2374 0.469669 16.5303L5.24264 21.3033C5.53553 21.5962 6.01041 21.5962 6.3033 21.3033C6.59619 21.0104 6.59619 20.5355 6.3033 20.2426L2.06066 16L6.3033 11.7574C6.59619 11.4645 6.59619 10.9896 6.3033 10.6967C6.01041 10.4038 5.53553 10.4038 5.24264 10.6967L0.469669 15.4697ZM26 15.25L0.999999 15.25L0.999999 16.75L26 16.75L26 15.25Z" fill="#fff"/>
</svg>
